# xmcd CD database file
#
# Track frame offsets:
#	182
#	27392
#	54800
#	76817
#	89550
#	115887
#	138070
#	148327
#	163415
#	183530
#	212482
#	234792
#	258925
#
# Disc length: 3807 seconds
#
# Revision: 1
# Processed by: cddbd v1.4PL0 Copyright (c) Steve Scherf et al.
# Submitted via: CDex 1.50
#
DISCID=ac0edd0d
DTITLE=Al Cohn and Henri Renaud - Cohn's Delight
DYEAR=1954
DGENRE=Jazz
TTITLE0=Wallington Special
TTITLE1=Lisa
TTITLE2=Boo Wah
TTITLE3=Something For Lili
TTITLE4=The Things We Did Last Summer (alt. take)
TTITLE5=You Stepped Out Of A Dream
TTITLE6=NY's Idea (1)
TTITLE7=NY's Idea (2)
TTITLE8=Lazy Things
TTITLE9=Lazy Things (alt. take)
TTITLE10=Mountain Greenery
TTITLE11=Once A While
TTITLE12=The Things We Did Last Summer
EXTD=YEAR: 1954
EXTT0=
EXTT1=
EXTT2=
EXTT3=
EXTT4=
EXTT5=
EXTT6=
EXTT7=
EXTT8=
EXTT9=
EXTT10=
EXTT11=
EXTT12=
PLAYORDER=
